<svg width="214" height="269" viewBox="0 0 214 269" fill="none" xmlns="http://www.w3.org/2000/svg">
<g filter="url(#filter0_d_66_5138)">
<path d="M43.672 232.544C43.672 236.299 44.0347 238.987 44.76 240.608C45.528 242.187 46.7653 242.976 48.472 242.976C50.1787 242.976 52.5893 242.571 55.704 241.76L57.368 250.784C53.9973 252.021 50.6053 252.64 47.192 252.64C42.072 252.64 38.3387 250.955 35.992 247.584C33.688 244.171 32.536 239.115 32.536 232.416C32.536 225.675 33.752 220.533 36.184 216.992C38.616 213.408 42.584 211.616 48.088 211.616C51.3307 211.616 54.424 212.299 57.368 213.664L55.64 223.584C52.312 222.475 49.9867 221.92 48.664 221.92C46.7867 221.92 45.4853 222.752 44.76 224.416C44.0347 226.037 43.672 228.747 43.672 232.544ZM69.794 234.784V252H59.17V221.344H68.514L69.154 223.2H69.41C70.3913 222.091 71.3727 221.387 72.354 221.088C73.378 220.747 75.0207 220.576 77.282 220.576L76.834 230.816H73.89C72.226 230.816 71.1167 231.072 70.562 231.584C70.05 232.096 69.794 233.163 69.794 234.784ZM92.0325 229.728C90.9232 229.728 90.1978 230.112 89.8565 230.88C89.5152 231.605 89.3445 232.736 89.3445 234.272H94.9125V232.736C94.9125 230.731 93.9525 229.728 92.0325 229.728ZM92.2885 220.576C96.6832 220.576 99.8192 221.643 101.697 223.776C103.617 225.867 104.577 228.875 104.577 232.8C104.577 233.312 104.427 235.616 104.129 239.712H89.5365C89.5365 242.912 91.0085 244.512 93.9525 244.512C95.3605 244.512 98.1125 244.021 102.209 243.04L103.105 250.976C99.5205 252.085 95.9365 252.64 92.3525 252.64C87.9578 252.64 84.5872 251.211 82.2405 248.352C79.8938 245.451 78.7205 241.525 78.7205 236.576C78.7205 225.909 83.2432 220.576 92.2885 220.576ZM134.681 252.384L130.393 252.64C127.108 252.64 125.102 251.552 124.377 249.376H124.057C122.649 251.552 120.494 252.64 117.593 252.64C113.753 252.64 111.044 251.296 109.465 248.608C107.929 245.92 107.161 241.931 107.161 236.64C107.161 231.307 108.036 227.296 109.785 224.608C111.534 221.92 114.052 220.576 117.337 220.576C119.598 220.576 121.348 221.109 122.585 222.176V210.976H133.273V242.592C133.273 243.403 133.444 243.957 133.785 244.256C134.126 244.512 134.745 244.64 135.641 244.64L134.681 252.384ZM120.153 229.6C119.257 229.6 118.66 230.155 118.361 231.264C118.062 232.331 117.913 233.888 117.913 235.936C117.913 237.941 117.934 239.307 117.977 240.032C118.02 240.757 118.105 241.504 118.233 242.272C118.404 242.997 118.638 243.509 118.937 243.808C119.278 244.064 119.812 244.192 120.537 244.192C121.305 244.192 122.094 244 122.905 243.616V230.368C122.009 229.856 121.092 229.6 120.153 229.6ZM148.861 252H138.301V221.664H148.861V252ZM139.133 219.232C138.237 218.464 137.789 217.227 137.789 215.52C137.789 213.813 138.237 212.555 139.133 211.744C140.029 210.933 141.501 210.528 143.549 210.528C145.597 210.528 147.069 210.933 147.965 211.744C148.861 212.555 149.309 213.813 149.309 215.52C149.309 217.184 148.861 218.421 147.965 219.232C147.069 220 145.597 220.384 143.549 220.384C141.501 220.384 140.029 220 139.133 219.232ZM181.848 252H169.368L166.68 239.328H166.168L163.16 252H151.384L157.592 231.392L151.896 212.256H164.824L167 224.032H167.512L169.88 212.256H181.144L175.96 231.392L181.848 252Z" fill="url(#paint0_linear_66_5138)"/>
</g>
<path d="M1.88524 3.92H10.7852V16.38H1.88524V3.92ZM8.18524 6H4.50524V14.28H8.18524V6ZM13.6652 2.24H16.3452V20.82H13.6652V2.24ZM19.6637 14.5H20.9637C23.1637 14.5 25.1037 14.46 27.3837 14.1L27.5837 16.24C25.2237 16.64 23.2237 16.7 20.9637 16.7H19.6637V14.5ZM19.6437 4.06H26.6637V11.22H22.2437V15.3H19.6637V9.12H24.0837V6.18H19.6437V4.06ZM32.5437 2.26H35.0637V20.78H32.5437V2.26ZM30.0637 9.26H33.1437V11.38H30.0637V9.26ZM28.4037 2.58H30.8637V19.9H28.4037V2.58ZM37.3621 10.56H54.1421V12.5H37.3621V10.56ZM39.2421 13.42H52.1421V17.82H41.9221V19.4H39.2821V16.14H49.5221V15.22H39.2421V13.42ZM39.2821 18.84H52.6621V20.64H39.2821V18.84ZM39.4221 2.58H52.1021V6.94H42.0821V8.46H39.4421V5.28H49.4821V4.36H39.4221V2.58ZM39.4421 7.9H52.4421V9.7H39.4421V7.9ZM65.9895 3C68.8095 3 70.8495 4.62 70.8495 6.96C70.8495 9.26 68.8095 10.92 65.9895 10.92C63.1895 10.92 61.1495 9.26 61.1495 6.96C61.1495 4.62 63.1895 3 65.9895 3ZM65.9895 5.16C64.6495 5.16 63.6895 5.8 63.6895 6.96C63.6895 8.1 64.6495 8.74 65.9895 8.74C67.3495 8.74 68.3095 8.1 68.3095 6.96C68.3095 5.8 67.3495 5.16 65.9895 5.16ZM64.7495 12.76H67.4095V20.22H64.7495V12.76ZM72.8495 2.26H75.4895V20.78H72.8495V2.26ZM60.3695 14.16L60.0495 12C63.2895 12 67.8695 11.96 71.7895 11.36L71.9695 13.3C67.9495 14.1 63.5695 14.14 60.3695 14.16ZM90.1079 2.28H92.7679V16.12H90.1079V2.28ZM92.0079 7.92H95.2279V10.1H92.0079V7.92ZM78.1879 4.2H89.0879V6.28H78.1879V4.2ZM83.6479 6.94C86.3079 6.94 88.1879 8.4 88.1879 10.52C88.1879 12.64 86.3079 14.08 83.6479 14.08C80.9679 14.08 79.0879 12.64 79.0879 10.52C79.0879 8.4 80.9679 6.94 83.6479 6.94ZM83.6479 8.96C82.4679 8.96 81.6479 9.52 81.6479 10.52C81.6479 11.52 82.4679 12.06 83.6479 12.06C84.8279 12.06 85.6479 11.52 85.6479 10.52C85.6479 9.52 84.8279 8.96 83.6479 8.96ZM82.3079 2.24H84.9679V5.22H82.3079V2.24ZM80.8279 18.34H93.4279V20.46H80.8279V18.34ZM80.8279 15.08H83.4879V19.26H80.8279V15.08ZM107.695 3.32H110.015V4.66C110.015 8.68 107.155 12.24 102.355 13.18L101.215 10.98C105.395 10.26 107.695 7.32 107.695 4.66V3.32ZM108.235 3.32H110.535V4.66C110.535 7.38 112.815 10.26 117.015 10.98L115.875 13.18C111.075 12.24 108.235 8.74 108.235 4.66V3.32ZM100.835 16.36H117.595V18.52H100.835V16.36ZM119.574 4H128.434V16.28H119.574V4ZM125.814 6.08H122.194V14.18H125.814V6.08ZM130.854 2.26H133.534V20.78H130.854V2.26ZM132.934 9.24H136.214V11.44H132.934V9.24ZM139.192 11.8H152.212V13.88H139.192V11.8ZM137.232 16.5H153.992V18.66H137.232V16.5ZM139.192 3.6H152.052V5.74H141.892V12.38H139.192V3.6ZM141.072 7.68H151.632V9.74H141.072V7.68ZM167.331 2.28H169.991V16.12H167.331V2.28ZM169.231 7.92H172.451V10.1H169.231V7.92ZM155.411 4.2H166.311V6.28H155.411V4.2ZM160.871 6.94C163.531 6.94 165.411 8.4 165.411 10.52C165.411 12.64 163.531 14.08 160.871 14.08C158.191 14.08 156.311 12.64 156.311 10.52C156.311 8.4 158.191 6.94 160.871 6.94ZM160.871 8.96C159.691 8.96 158.871 9.52 158.871 10.52C158.871 11.52 159.691 12.06 160.871 12.06C162.051 12.06 162.871 11.52 162.871 10.52C162.871 9.52 162.051 8.96 160.871 8.96ZM159.531 2.24H162.191V5.22H159.531V2.24ZM158.051 18.34H170.651V20.46H158.051V18.34ZM158.051 15.08H160.711V19.26H158.051V15.08ZM190.758 2.28H193.438V15.78H190.758V2.28ZM181.098 18.34H193.898V20.46H181.098V18.34ZM181.098 14.48H183.758V19.44H181.098V14.48ZM182.378 3.28H184.578V5.08C184.578 8.7 182.918 12.04 179.318 13.3L177.978 11.18C181.078 10.12 182.378 7.54 182.378 5.08V3.28ZM182.918 3.28H185.098V5.08C185.098 7.5 186.358 9.88 189.398 10.86L188.038 12.98C184.538 11.8 182.918 8.66 182.918 5.08V3.28ZM199.996 8.46H202.656V11.86H199.996V8.46ZM206.516 8.46H209.156V11.86H206.516V8.46ZM196.236 11.04H212.976V13.14H196.236V11.04ZM204.576 14.08C208.576 14.08 210.996 15.28 210.996 17.42C210.996 19.58 208.576 20.78 204.576 20.78C200.556 20.78 198.136 19.58 198.136 17.42C198.136 15.28 200.556 14.08 204.576 14.08ZM204.576 16.08C202.096 16.08 200.836 16.5 200.836 17.42C200.836 18.36 202.096 18.78 204.576 18.78C207.056 18.78 208.316 18.36 208.316 17.42C208.316 16.5 207.056 16.08 204.576 16.08ZM204.616 2.52C208.696 2.52 211.316 3.88 211.316 6.1C211.316 8.3 208.696 9.62 204.616 9.62C200.516 9.62 197.916 8.3 197.916 6.1C197.916 3.88 200.516 2.52 204.616 2.52ZM204.616 4.56C202.076 4.56 200.656 5.06 200.656 6.1C200.656 7.12 202.076 7.62 204.616 7.62C207.156 7.62 208.576 7.12 208.576 6.1C208.576 5.06 207.156 4.56 204.616 4.56Z" fill="black"/>
<circle cx="46.5" cy="134.5" r="7.5" fill="url(#paint1_linear_66_5138)"/>
<circle cx="46.5" cy="169.5" r="7.5" fill="url(#paint2_linear_66_5138)"/>
<circle cx="46.5" cy="76.5" r="7.5" fill="url(#paint3_linear_66_5138)"/>
<circle cx="168.5" cy="134.5" r="7.5" fill="url(#paint4_linear_66_5138)"/>
<circle cx="108.5" cy="169.5" r="7.5" fill="url(#paint5_linear_66_5138)"/>
<circle cx="108.5" cy="200.5" r="7.5" fill="url(#paint6_linear_66_5138)"/>
<circle cx="168.5" cy="169.5" r="7.5" fill="url(#paint7_linear_66_5138)"/>
<circle cx="168.5" cy="76.5" r="7.5" fill="url(#paint8_linear_66_5138)"/>
<circle cx="108.5" cy="46.5" r="7.5" fill="url(#paint9_linear_66_5138)"/>
<rect x="127" y="49" width="34" height="5.08494" transform="rotate(31.023 127 49)" fill="url(#paint10_linear_66_5138)"/>
<rect x="63" y="140" width="34" height="5.08494" transform="rotate(31.023 63 140)" fill="url(#paint11_linear_66_5138)"/>
<rect x="63" y="77" width="30" height="5.08494" transform="rotate(31.023 63 77)" fill="url(#paint12_linear_66_5138)"/>
<rect x="156" y="81.2974" width="30" height="5.08494" transform="rotate(147.686 156 81.2974)" fill="url(#paint13_linear_66_5138)"/>
<path d="M93 90C93 87.2386 95.2386 85 98 85H123V92H93V90Z" fill="url(#paint14_linear_66_5138)"/>
<path d="M93 125H123V132H98C95.2386 132 93 129.761 93 127V125Z" fill="url(#paint15_linear_66_5138)"/>
<rect x="88" y="114.297" width="30" height="5.08494" transform="rotate(147.686 88 114.297)" fill="url(#paint16_linear_66_5138)"/>
<rect x="156" y="142.297" width="34" height="5.08494" transform="rotate(147.686 156 142.297)" fill="url(#paint17_linear_66_5138)"/>
<rect x="91" y="53.2974" width="34" height="5.08494" transform="rotate(147.686 91 53.2974)" fill="url(#paint18_linear_66_5138)"/>
<rect x="130" y="110" width="30" height="5.08494" transform="rotate(31.023 130 110)" fill="url(#paint19_linear_66_5138)"/>
<rect x="166" y="118" width="30" height="5.08494" transform="rotate(-90 166 118)" fill="url(#paint20_linear_66_5138)"/>
<path d="M98 130C95.2386 130 93 127.761 93 125V90C93 87.2386 95.2386 85 98 85H100V130H98Z" fill="url(#paint21_linear_66_5138)"/>
<rect x="44" y="118" width="30" height="5.08494" transform="rotate(-90 44 118)" fill="url(#paint22_linear_66_5138)"/>
<rect x="44" y="155" width="8" height="5.08494" transform="rotate(-90 44 155)" fill="url(#paint23_linear_66_5138)"/>
<rect x="106" y="189" width="8" height="5.08494" transform="rotate(-90 106 189)" fill="url(#paint24_linear_66_5138)"/>
<rect x="166" y="155" width="8" height="5.08494" transform="rotate(-90 166 155)" fill="url(#paint25_linear_66_5138)"/>
<rect x="106" y="155" width="14" height="5.08494" transform="rotate(-90 106 155)" fill="url(#paint26_linear_66_5138)"/>
<rect x="106" y="77" width="14" height="5.08494" transform="rotate(-90 106 77)" fill="url(#paint27_linear_66_5138)"/>
<defs>
<filter id="filter0_d_66_5138" x="32.536" y="210.528" width="151.312" height="44.112" filterUnits="userSpaceOnUse" color-interpolation-filters="sRGB">
<feFlood flood-opacity="0" result="BackgroundImageFix"/>
<feColorMatrix in="SourceAlpha" type="matrix" values="0 0 0 0 0 0 0 0 0 0 0 0 0 0 0 0 0 0 127 0" result="hardAlpha"/>
<feOffset dx="1" dy="1"/>
<feGaussianBlur stdDeviation="0.5"/>
<feComposite in2="hardAlpha" operator="out"/>
<feColorMatrix type="matrix" values="0 0 0 0 0 0 0 0 0 0 0 0 0 0 0 0 0 0 0.1 0"/>
<feBlend mode="normal" in2="BackgroundImageFix" result="effect1_dropShadow_66_5138"/>
<feBlend mode="normal" in="SourceGraphic" in2="effect1_dropShadow_66_5138" result="shape"/>
</filter>
<linearGradient id="paint0_linear_66_5138" x1="107" y1="199" x2="107" y2="269" gradientUnits="userSpaceOnUse">
<stop stop-color="#093687"/>
<stop offset="1" stop-color="#020D21"/>
</linearGradient>
<linearGradient id="paint1_linear_66_5138" x1="46.5" y1="127" x2="46.5" y2="142" gradientUnits="userSpaceOnUse">
<stop stop-color="#C8DBFF"/>
<stop offset="1" stop-color="#020D21"/>
</linearGradient>
<linearGradient id="paint2_linear_66_5138" x1="46.5" y1="162" x2="46.5" y2="177" gradientUnits="userSpaceOnUse">
<stop stop-color="#C8DBFF"/>
<stop offset="1" stop-color="#020D21"/>
</linearGradient>
<linearGradient id="paint3_linear_66_5138" x1="46.5" y1="69" x2="46.5" y2="84" gradientUnits="userSpaceOnUse">
<stop stop-color="#C8DBFF"/>
<stop offset="1" stop-color="#020D21"/>
</linearGradient>
<linearGradient id="paint4_linear_66_5138" x1="168.5" y1="127" x2="168.5" y2="142" gradientUnits="userSpaceOnUse">
<stop stop-color="#C8DBFF"/>
<stop offset="1" stop-color="#020D21"/>
</linearGradient>
<linearGradient id="paint5_linear_66_5138" x1="108.5" y1="162" x2="108.5" y2="177" gradientUnits="userSpaceOnUse">
<stop stop-color="#C8DBFF"/>
<stop offset="1" stop-color="#020D21"/>
</linearGradient>
<linearGradient id="paint6_linear_66_5138" x1="108.5" y1="193" x2="108.5" y2="208" gradientUnits="userSpaceOnUse">
<stop stop-color="#C8DBFF"/>
<stop offset="1" stop-color="#020D21"/>
</linearGradient>
<linearGradient id="paint7_linear_66_5138" x1="168.5" y1="162" x2="168.5" y2="177" gradientUnits="userSpaceOnUse">
<stop stop-color="#C8DBFF"/>
<stop offset="1" stop-color="#020D21"/>
</linearGradient>
<linearGradient id="paint8_linear_66_5138" x1="168.5" y1="69" x2="168.5" y2="84" gradientUnits="userSpaceOnUse">
<stop stop-color="#C8DBFF"/>
<stop offset="1" stop-color="#020D21"/>
</linearGradient>
<linearGradient id="paint9_linear_66_5138" x1="108.5" y1="39" x2="108.5" y2="54" gradientUnits="userSpaceOnUse">
<stop stop-color="#C8DBFF"/>
<stop offset="1" stop-color="#020D21"/>
</linearGradient>
<linearGradient id="paint10_linear_66_5138" x1="144" y1="49" x2="144" y2="54.0849" gradientUnits="userSpaceOnUse">
<stop stop-color="#C8DBFF"/>
<stop offset="1" stop-color="#020D21"/>
</linearGradient>
<linearGradient id="paint11_linear_66_5138" x1="80" y1="140" x2="80" y2="145.085" gradientUnits="userSpaceOnUse">
<stop stop-color="#C8DBFF"/>
<stop offset="1" stop-color="#020D21"/>
</linearGradient>
<linearGradient id="paint12_linear_66_5138" x1="78" y1="77" x2="78" y2="82.0849" gradientUnits="userSpaceOnUse">
<stop stop-color="#C8DBFF"/>
<stop offset="1" stop-color="#020D21"/>
</linearGradient>
<linearGradient id="paint13_linear_66_5138" x1="171" y1="81.2974" x2="171" y2="86.3823" gradientUnits="userSpaceOnUse">
<stop stop-color="#C8DBFF"/>
<stop offset="1" stop-color="#020D21"/>
</linearGradient>
<linearGradient id="paint14_linear_66_5138" x1="108" y1="85" x2="108" y2="92" gradientUnits="userSpaceOnUse">
<stop stop-color="#C8DBFF"/>
<stop offset="1" stop-color="#020D21"/>
</linearGradient>
<linearGradient id="paint15_linear_66_5138" x1="108" y1="125" x2="108" y2="132" gradientUnits="userSpaceOnUse">
<stop stop-color="#C8DBFF"/>
<stop offset="1" stop-color="#020D21"/>
</linearGradient>
<linearGradient id="paint16_linear_66_5138" x1="103" y1="114.297" x2="103" y2="119.382" gradientUnits="userSpaceOnUse">
<stop stop-color="#C8DBFF"/>
<stop offset="1" stop-color="#020D21"/>
</linearGradient>
<linearGradient id="paint17_linear_66_5138" x1="173" y1="142.297" x2="173" y2="147.382" gradientUnits="userSpaceOnUse">
<stop stop-color="#C8DBFF"/>
<stop offset="1" stop-color="#020D21"/>
</linearGradient>
<linearGradient id="paint18_linear_66_5138" x1="108" y1="53.2974" x2="108" y2="58.3823" gradientUnits="userSpaceOnUse">
<stop stop-color="#C8DBFF"/>
<stop offset="1" stop-color="#020D21"/>
</linearGradient>
<linearGradient id="paint19_linear_66_5138" x1="145" y1="110" x2="145" y2="115.085" gradientUnits="userSpaceOnUse">
<stop stop-color="#C8DBFF"/>
<stop offset="1" stop-color="#020D21"/>
</linearGradient>
<linearGradient id="paint20_linear_66_5138" x1="181" y1="118" x2="181" y2="123.085" gradientUnits="userSpaceOnUse">
<stop stop-color="#C8DBFF"/>
<stop offset="1" stop-color="#020D21"/>
</linearGradient>
<linearGradient id="paint21_linear_66_5138" x1="93" y1="107.5" x2="100" y2="107.5" gradientUnits="userSpaceOnUse">
<stop stop-color="#C8DBFF"/>
<stop offset="1" stop-color="#020D21"/>
</linearGradient>
<linearGradient id="paint22_linear_66_5138" x1="59" y1="118" x2="59" y2="123.085" gradientUnits="userSpaceOnUse">
<stop stop-color="#C8DBFF"/>
<stop offset="1" stop-color="#020D21"/>
</linearGradient>
<linearGradient id="paint23_linear_66_5138" x1="48" y1="155" x2="48" y2="160.085" gradientUnits="userSpaceOnUse">
<stop stop-color="#C8DBFF"/>
<stop offset="1" stop-color="#020D21"/>
</linearGradient>
<linearGradient id="paint24_linear_66_5138" x1="110" y1="189" x2="110" y2="194.085" gradientUnits="userSpaceOnUse">
<stop stop-color="#C8DBFF"/>
<stop offset="1" stop-color="#020D21"/>
</linearGradient>
<linearGradient id="paint25_linear_66_5138" x1="170" y1="155" x2="170" y2="160.085" gradientUnits="userSpaceOnUse">
<stop stop-color="#C8DBFF"/>
<stop offset="1" stop-color="#020D21"/>
</linearGradient>
<linearGradient id="paint26_linear_66_5138" x1="113" y1="155" x2="113" y2="160.085" gradientUnits="userSpaceOnUse">
<stop stop-color="#C8DBFF"/>
<stop offset="1" stop-color="#020D21"/>
</linearGradient>
<linearGradient id="paint27_linear_66_5138" x1="113" y1="77" x2="113" y2="82.0849" gradientUnits="userSpaceOnUse">
<stop stop-color="#C8DBFF"/>
<stop offset="1" stop-color="#020D21"/>
</linearGradient>
</defs>
</svg>
